<?xml version="1.0" encoding="utf-8"?>
<!-- Generator: Adobe Illustrator 25.2.3, SVG Export Plug-In . SVG Version: 6.00 Build 0)  -->
<svg version="1.1" id="Layer_1" xmlns="http://www.w3.org/2000/svg" xmlns:xlink="http://www.w3.org/1999/xlink" x="0px" y="0px"
	 viewBox="0 0 200 36" style="enable-background:new 0 0 200 36;" xml:space="preserve">
<style type="text/css">
	.st0{fill:#FFFFFF;}
	.st1{fill:#0D2D6C;}
	.st2{fill:#007FA4;}
	.st3{fill:#00B5EF;}
	.st4{clip-path:url(#SVGID_2_);fill:#FFFFFF;}
	.st5{clip-path:url(#SVGID_4_);fill:#FFFFFF;}
	.st6{clip-path:url(#SVGID_6_);fill:#FFFFFF;}
	.st7{clip-path:url(#SVGID_8_);fill:#FFFFFF;}
	.st8{clip-path:url(#SVGID_10_);fill:#FFFFFF;}
	.st9{clip-path:url(#SVGID_12_);fill:#FFFFFF;}
	.st10{clip-path:url(#SVGID_14_);fill:#FFFFFF;}
	.st11{clip-path:url(#SVGID_16_);fill:#FFFFFF;}
	.st12{clip-path:url(#SVGID_18_);fill:#FFFFFF;}
	.st13{clip-path:url(#SVGID_20_);fill:#FFFFFF;}
	.st14{clip-path:url(#SVGID_22_);fill:#FFFFFF;}
	.st15{clip-path:url(#SVGID_24_);fill:#FFFFFF;}
	.st16{clip-path:url(#SVGID_26_);fill:#FFFFFF;}
	.st17{clip-path:url(#SVGID_28_);fill:#FFFFFF;}
	.st18{clip-path:url(#SVGID_30_);fill:#FFFFFF;}
	.st19{clip-path:url(#SVGID_32_);fill:#FFFFFF;}
	.st20{clip-path:url(#SVGID_34_);fill:#FFFFFF;}
	.st21{clip-path:url(#SVGID_36_);fill:#FFFFFF;}
	.st22{clip-path:url(#SVGID_38_);fill:#FFFFFF;}
	.st23{clip-path:url(#SVGID_40_);fill:#FFFFFF;}
	.st24{clip-path:url(#SVGID_42_);fill:#FFFFFF;}
	.st25{clip-path:url(#SVGID_44_);fill:#FFFFFF;}
	.st26{clip-path:url(#SVGID_46_);fill:#FFFFFF;}
	.st27{clip-path:url(#SVGID_48_);fill:#FFFFFF;}
	.st28{clip-path:url(#SVGID_50_);fill:#FFFFFF;}
	.st29{clip-path:url(#SVGID_52_);fill:#FFFFFF;}
	.st30{clip-path:url(#SVGID_54_);fill:#FFFFFF;}
	.st31{clip-path:url(#SVGID_56_);fill:#FFFFFF;}
	.st32{clip-path:url(#SVGID_58_);fill:#FFFFFF;}
	.st33{clip-path:url(#SVGID_60_);fill:#FFFFFF;}
	.st34{clip-path:url(#SVGID_62_);fill:#FFFFFF;}
	.st35{clip-path:url(#SVGID_64_);fill:#FFFFFF;}
	.st36{clip-path:url(#SVGID_66_);fill:#FFFFFF;}
	.st37{clip-path:url(#SVGID_68_);fill:#FFFFFF;}
	.st38{clip-path:url(#SVGID_70_);fill:#FFFFFF;}
	.st39{clip-path:url(#SVGID_72_);fill:#FFFFFF;}
	.st40{clip-path:url(#SVGID_74_);fill:#FFFFFF;}
	.st41{clip-path:url(#SVGID_76_);fill:#FFFFFF;}
	.st42{clip-path:url(#SVGID_78_);fill:#FFFFFF;}
	.st43{clip-path:url(#SVGID_80_);fill:#FFFFFF;}
	.st44{clip-path:url(#SVGID_82_);fill:#FFFFFF;}
	.st45{clip-path:url(#SVGID_84_);fill:#FFFFFF;}
</style>
<rect x="2.9" y="4.7" class="st0" width="40.3" height="28.3"/>
<polygon class="st1" points="16.3,32.1 23.6,32.1 21,29.4 "/>
<polygon class="st1" points="21.9,28.9 25,32.1 42.1,32.1 42.1,26.4 31.3,23.3 "/>
<polygon class="st1" points="21.8,19.5 42.1,12.7 42.1,5.7 28,5.7 18.3,18.6 "/>
<polygon class="st1" points="42.1,25.4 42.1,16.9 32.5,22.6 "/>
<polygon class="st1" points="20.2,20 17.7,19.4 16.2,21.4 "/>
<polygon class="st2" points="3.8,26.6 3.8,32.1 7,32.1 13.6,23.3 "/>
<polygon class="st2" points="15,23.1 8.2,32.1 14.4,32.1 20.3,28.6 "/>
<polygon class="st2" points="31.2,22.2 42.1,15.9 42.1,13.8 23.4,20 "/>
<polygon class="st2" points="21.2,28.2 30.1,22.9 21.9,20.6 15.8,22.6 "/>
<polygon class="st3" points="17.4,18.2 26.8,5.7 3.8,5.7 3.8,10.1 9.4,16 "/>
<polygon class="st3" points="8.9,16.8 3.8,15.3 3.8,25.5 14.1,22.1 "/>
<polygon class="st3" points="16.8,19.1 10.8,17.3 14.9,21.6 "/>
<polygon class="st3" points="3.8,11.5 3.8,14.3 7.6,15.4 "/>
<g>
	<g>
		<defs>
			<rect id="SVGID_1_" width="200" height="36"/>
		</defs>
		<clipPath id="SVGID_2_">
			<use xlink:href="#SVGID_1_"  style="overflow:visible;"/>
		</clipPath>
		<path class="st4" d="M108.1,24.3c-1,0-1.8,0.5-2.2,1.2v-1h-1.3v9.2h1.3v-3.5c0.3,0.6,1.1,1,2.2,1c1.9,0,3-1.6,3-3.5
			C111.1,25.8,110.1,24.3,108.1,24.3 M109.8,27.8c0,1.4-0.8,2.4-1.9,2.4c-1.2,0-2-1-2-2.4c0-1.3,0.8-2.4,2-2.4
			C109,25.5,109.8,26.4,109.8,27.8L109.8,27.8z"/>
	</g>
	<g>
		<defs>
			<rect id="SVGID_3_" width="200" height="36"/>
		</defs>
		<clipPath id="SVGID_4_">
			<use xlink:href="#SVGID_3_"  style="overflow:visible;"/>
		</clipPath>
		<path class="st5" d="M118.2,24.5h-1.3v4c0,1-0.5,1.7-1.6,1.7c-1,0-1.5-0.8-1.5-1.7v-4h-1.3v4.2c0,1.5,1,2.6,2.4,2.6
			c0.8,0,1.6-0.3,1.9-1c0,0.3,0,0.6,0.1,0.8h1.2c0-0.3-0.1-0.7-0.1-1.2L118.2,24.5L118.2,24.5z"/>
	</g>
	<g>
		<defs>
			<rect id="SVGID_5_" width="200" height="36"/>
		</defs>
		<clipPath id="SVGID_6_">
			<use xlink:href="#SVGID_5_"  style="overflow:visible;"/>
		</clipPath>
		<polygon class="st6" points="140.5,24.5 138.7,24.5 135.8,27.4 135.8,21.1 134.6,21.1 134.6,31.1 135.8,31.1 135.8,29.1 
			136.8,28.2 139,31.1 140.5,31.1 137.7,27.3 		"/>
	</g>
	<g>
		<defs>
			<rect id="SVGID_7_" width="200" height="36"/>
		</defs>
		<clipPath id="SVGID_8_">
			<use xlink:href="#SVGID_7_"  style="overflow:visible;"/>
		</clipPath>
		<path class="st7" d="M123.6,24.2c-1.1,0-1.8,0.5-2.2,1.1v-4.3h-1.2V31h1.3v-1c0.4,0.7,1.1,1.1,2.2,1.1c2,0,3-1.6,3-3.5
			C126.6,25.8,125.6,24.2,123.6,24.2 M123.4,30.1c-1.1,0-2-1-2-2.4c0-1.4,0.8-2.4,2-2.4c1.2,0,1.9,0.9,1.9,2.4
			C125.3,29.2,124.5,30.1,123.4,30.1"/>
	</g>
	<g>
		<defs>
			<rect id="SVGID_9_" width="200" height="36"/>
		</defs>
		<clipPath id="SVGID_10_">
			<use xlink:href="#SVGID_9_"  style="overflow:visible;"/>
		</clipPath>
		<polygon class="st8" points="144.7,29 142.7,24.5 141.2,24.5 144.1,30.3 142.4,33.8 143.8,33.8 148,24.5 146.6,24.5 		"/>
	</g>
	<g>
		<defs>
			<rect id="SVGID_11_" width="200" height="36"/>
		</defs>
		<clipPath id="SVGID_12_">
			<use xlink:href="#SVGID_11_"  style="overflow:visible;"/>
		</clipPath>
		<polygon class="st9" points="86.5,21.6 84.8,21.6 83.6,23.6 84.7,23.6 		"/>
	</g>
	<g>
		<defs>
			<rect id="SVGID_13_" width="200" height="36"/>
		</defs>
		<clipPath id="SVGID_14_">
			<use xlink:href="#SVGID_13_"  style="overflow:visible;"/>
		</clipPath>
		<rect x="128.1" y="21.1" class="st10" width="1.3" height="9.9"/>
	</g>
	<g>
		<defs>
			<rect id="SVGID_15_" width="200" height="36"/>
		</defs>
		<clipPath id="SVGID_16_">
			<use xlink:href="#SVGID_15_"  style="overflow:visible;"/>
		</clipPath>
		<path class="st11" d="M100,24.2c-1.6,0-3.1,1.4-3.1,3.5c0,2.3,1.6,3.6,3.3,3.6c1.6,0,2.6-1,2.9-2.1l-1.1-0.3
			c-0.3,0.8-0.8,1.3-1.8,1.3c-1.1,0-2-0.8-2-2h4.9c0-0.1,0-0.3,0-0.4C103.1,25.6,101.9,24.2,100,24.2 M98.1,27.1
			c0.1-0.9,0.7-1.7,1.8-1.7c1.1,0,1.8,0.8,1.8,1.7H98.1z"/>
	</g>
	<g>
		<defs>
			<rect id="SVGID_17_" width="200" height="36"/>
		</defs>
		<clipPath id="SVGID_18_">
			<use xlink:href="#SVGID_17_"  style="overflow:visible;"/>
		</clipPath>
		<path class="st12" d="M64,24.2c-1.6,0-3.1,1.4-3.1,3.5c0,2.3,1.6,3.6,3.3,3.6c1.6,0,2.6-1,2.9-2.1L66,28.9
			c-0.3,0.8-0.8,1.3-1.8,1.3c-1.1,0-2-0.8-2-2h4.9c0-0.1,0-0.3,0-0.4C67.2,25.6,66,24.2,64,24.2 M62.3,27.1c0.1-0.9,0.7-1.7,1.8-1.7
			c1.1,0,1.8,0.8,1.8,1.7H62.3z"/>
	</g>
	<g>
		<defs>
			<rect id="SVGID_19_" width="200" height="36"/>
		</defs>
		<clipPath id="SVGID_20_">
			<use xlink:href="#SVGID_19_"  style="overflow:visible;"/>
		</clipPath>
		<path class="st13" d="M71.4,27.3l-1-0.3c-0.5-0.1-0.8-0.4-0.8-0.8c0-0.4,0.4-0.9,1.1-0.9c1,0,1.3,0.8,1.4,1.1l1.1-0.4
			c-0.2-0.6-0.7-1.7-2.5-1.7c-1.3,0-2.3,1-2.3,2.1c0,1,0.6,1.7,1.6,1.8l1.1,0.3c0.5,0.1,0.9,0.4,0.9,0.9c0,0.4-0.4,0.9-1.1,0.9
			c-1,0-1.5-0.5-1.6-1.2l-1.1,0.4c0.1,0.8,0.9,1.9,2.7,1.9c1.6,0,2.4-1.1,2.4-2C73.2,28.2,72.6,27.5,71.4,27.3"/>
	</g>
	<g>
		<defs>
			<rect id="SVGID_21_" width="200" height="36"/>
		</defs>
		<clipPath id="SVGID_22_">
			<use xlink:href="#SVGID_21_"  style="overflow:visible;"/>
		</clipPath>
		<polygon class="st14" points="54.3,19 53.1,19 54.6,20.7 56.2,20.7 57.8,19 56.5,19 55.4,19.9 		"/>
	</g>
	<g>
		<defs>
			<rect id="SVGID_23_" width="200" height="36"/>
		</defs>
		<clipPath id="SVGID_24_">
			<use xlink:href="#SVGID_23_"  style="overflow:visible;"/>
		</clipPath>
		<polygon class="st15" points="80.7,24.5 78.9,24.5 76.1,27.4 76.1,21.1 74.8,21.1 74.8,31.1 76.1,31.1 76.1,29.1 77,28.2 
			79.1,31.1 80.8,31.1 77.9,27.3 		"/>
	</g>
	<g>
		<defs>
			<rect id="SVGID_25_" width="200" height="36"/>
		</defs>
		<clipPath id="SVGID_26_">
			<use xlink:href="#SVGID_25_"  style="overflow:visible;"/>
		</clipPath>
		<path class="st16" d="M55.4,30.1c-1.7,0-3.5-1.3-3.5-3.8s1.6-3.8,3.5-3.8c1.6,0,2.7,0.8,3,2.3l1.2-0.4c-0.5-1.9-2.1-3.1-4.2-3.1
			c-2.4,0-4.8,1.8-4.8,5.1s2.3,5.1,4.8,5.1c2.2,0,3.7-1.3,4.2-3.1l-1.2-0.4C58.1,29,57.1,30.1,55.4,30.1"/>
	</g>
	<g>
		<defs>
			<rect id="SVGID_27_" width="200" height="36"/>
		</defs>
		<clipPath id="SVGID_28_">
			<use xlink:href="#SVGID_27_"  style="overflow:visible;"/>
		</clipPath>
		<path class="st17" d="M132,21c-0.5,0-1,0.4-1,1s0.4,1,1,1s1-0.4,1-1S132.6,21,132,21"/>
	</g>
	<g>
		<defs>
			<rect id="SVGID_29_" width="200" height="36"/>
		</defs>
		<clipPath id="SVGID_30_">
			<use xlink:href="#SVGID_29_"  style="overflow:visible;"/>
		</clipPath>
		<rect x="131.4" y="24.5" class="st18" width="1.3" height="6.6"/>
	</g>
	<g>
		<defs>
			<rect id="SVGID_31_" width="200" height="36"/>
		</defs>
		<clipPath id="SVGID_32_">
			<use xlink:href="#SVGID_31_"  style="overflow:visible;"/>
		</clipPath>
		<path class="st19" d="M93.6,25.6v-1.1h-1.3v6.6h1.3v-3.3c0-1.5,0.7-2,1.8-2c0.2,0,0.3,0,0.5,0v-1.4c-0.1,0-0.3,0-0.4,0
			C94.9,24.3,94.2,24.6,93.6,25.6"/>
	</g>
	<g>
		<defs>
			<rect id="SVGID_33_" width="200" height="36"/>
		</defs>
		<clipPath id="SVGID_34_">
			<use xlink:href="#SVGID_33_"  style="overflow:visible;"/>
		</clipPath>
		<path class="st20" d="M84.2,24.2c-1.6,0-3.1,1.4-3.1,3.5c0,2.3,1.6,3.6,3.3,3.6c1.6,0,2.6-1,2.9-2.1l-1.1-0.3
			c-0.3,0.8-0.8,1.3-1.8,1.3c-1.1,0-2-0.8-2-2h4.9c0-0.1,0-0.3,0-0.4C87.3,25.6,86.2,24.2,84.2,24.2 M82.4,27.1
			c0.1-0.9,0.7-1.7,1.8-1.7c1.1,0,1.8,0.8,1.8,1.7H82.4z"/>
	</g>
	<g>
		<defs>
			<rect id="SVGID_35_" width="200" height="36"/>
		</defs>
		<clipPath id="SVGID_36_">
			<use xlink:href="#SVGID_35_"  style="overflow:visible;"/>
		</clipPath>
		<polygon class="st21" points="55.3,5.1 56.9,3.3 55.3,3.3 54.3,4.2 53.4,3.3 51.7,3.3 53.4,5.1 		"/>
	</g>
	<g>
		<defs>
			<rect id="SVGID_37_" width="200" height="36"/>
		</defs>
		<clipPath id="SVGID_38_">
			<use xlink:href="#SVGID_37_"  style="overflow:visible;"/>
		</clipPath>
		<path class="st22" d="M53,11.8h1l1.9,3.7h2.1l-2.1-4c1.3-0.3,2.1-1.4,2.1-2.8c0-1.7-1.2-3-3.1-3H51v9.8h1.9L53,11.8L53,11.8z
			 M53,7.4h1.6c1,0,1.6,0.5,1.6,1.4c0,0.8-0.5,1.3-1.6,1.3H53C53,10.1,53,7.4,53,7.4z"/>
	</g>
	<g>
		<defs>
			<rect id="SVGID_39_" width="200" height="36"/>
		</defs>
		<clipPath id="SVGID_40_">
			<use xlink:href="#SVGID_39_"  style="overflow:visible;"/>
		</clipPath>
		<path class="st23" d="M180.9,8.5c-2,0-3.5,1.5-3.5,3.6s1.6,3.6,3.5,3.6c2,0,3.5-1.5,3.5-3.6S182.9,8.5,180.9,8.5 M180.9,14
			c-0.9,0-1.7-0.7-1.7-1.9c0-1.3,0.8-1.9,1.7-1.9c0.9,0,1.7,0.6,1.7,1.9C182.6,13.3,181.8,14,180.9,14"/>
	</g>
	<g>
		<defs>
			<rect id="SVGID_41_" width="200" height="36"/>
		</defs>
		<clipPath id="SVGID_42_">
			<use xlink:href="#SVGID_41_"  style="overflow:visible;"/>
		</clipPath>
		<rect x="59.3" y="8.7" class="st24" width="1.8" height="6.8"/>
	</g>
	<g>
		<defs>
			<rect id="SVGID_43_" width="200" height="36"/>
		</defs>
		<clipPath id="SVGID_44_">
			<use xlink:href="#SVGID_43_"  style="overflow:visible;"/>
		</clipPath>
		<polygon class="st25" points="62.8,5.8 60.7,5.8 59.4,7.9 60.9,7.9 		"/>
	</g>
	<g>
		<defs>
			<rect id="SVGID_45_" width="200" height="36"/>
		</defs>
		<clipPath id="SVGID_46_">
			<use xlink:href="#SVGID_45_"  style="overflow:visible;"/>
		</clipPath>
		<polygon class="st26" points="128.1,5.8 126,5.8 124.7,7.9 126.2,7.9 		"/>
	</g>
	<g>
		<defs>
			<rect id="SVGID_47_" width="200" height="36"/>
		</defs>
		<clipPath id="SVGID_48_">
			<use xlink:href="#SVGID_47_"  style="overflow:visible;"/>
		</clipPath>
		<path class="st27" d="M110.9,15.7c2,0,3.5-1.5,3.5-3.6s-1.6-3.6-3.5-3.6s-3.5,1.5-3.5,3.6C107.5,14.2,108.9,15.7,110.9,15.7
			 M110.9,10.2c0.9,0,1.7,0.6,1.7,1.9s-0.8,1.9-1.7,1.9c-0.9,0-1.7-0.7-1.7-1.9C109.3,10.8,110.1,10.2,110.9,10.2"/>
	</g>
	<g>
		<defs>
			<rect id="SVGID_49_" width="200" height="36"/>
		</defs>
		<clipPath id="SVGID_50_">
			<use xlink:href="#SVGID_49_"  style="overflow:visible;"/>
		</clipPath>
		<path class="st28" d="M198.2,14.3V8.7h-1.8v3.9c0,0.8-0.4,1.3-1.3,1.3c-0.9,0-1.2-0.6-1.2-1.4V8.7H192V13c0,1.5,1,2.7,2.6,2.7
			c0.7,0,1.5-0.3,1.8-0.9c0,0.3,0,0.6,0.1,0.7h1.7C198.2,15.3,198.2,14.8,198.2,14.3"/>
	</g>
	<g>
		<defs>
			<rect id="SVGID_51_" width="200" height="36"/>
		</defs>
		<clipPath id="SVGID_52_">
			<use xlink:href="#SVGID_51_"  style="overflow:visible;"/>
		</clipPath>
		<rect x="84.7" y="8.7" class="st29" width="1.8" height="6.8"/>
	</g>
	<g>
		<defs>
			<rect id="SVGID_53_" width="200" height="36"/>
		</defs>
		<clipPath id="SVGID_54_">
			<use xlink:href="#SVGID_53_"  style="overflow:visible;"/>
		</clipPath>
		<path class="st30" d="M98.5,15.7c1.6,0,2.7-1,3-2.2l-1.6-0.4c-0.3,0.6-0.7,1-1.6,1c-0.9,0-1.6-0.6-1.7-1.6h4.8c0,0,0-0.3,0-0.5
			c0-2.2-1.2-3.5-3.3-3.5c-1.7,0-3.3,1.4-3.3,3.6C94.9,14.4,96.6,15.7,98.5,15.7 M98.3,10c1,0,1.5,0.7,1.5,1.3h-2.9
			C96.8,10.7,97.4,10,98.3,10"/>
	</g>
	<g>
		<defs>
			<rect id="SVGID_55_" width="200" height="36"/>
		</defs>
		<clipPath id="SVGID_56_">
			<use xlink:href="#SVGID_55_"  style="overflow:visible;"/>
		</clipPath>
		<polygon class="st31" points="190.7,10.2 190.7,8.7 185.3,8.7 185.3,10.3 188.4,10.3 185.2,13.9 185.2,15.5 190.7,15.5 
			190.7,13.9 187.5,13.9 		"/>
	</g>
	<g>
		<defs>
			<rect id="SVGID_57_" width="200" height="36"/>
		</defs>
		<clipPath id="SVGID_58_">
			<use xlink:href="#SVGID_57_"  style="overflow:visible;"/>
		</clipPath>
		<polygon class="st32" points="84.7,7.9 86.2,7.9 88.1,5.8 86,5.8 		"/>
	</g>
	<g>
		<defs>
			<rect id="SVGID_59_" width="200" height="36"/>
		</defs>
		<clipPath id="SVGID_60_">
			<use xlink:href="#SVGID_59_"  style="overflow:visible;"/>
		</clipPath>
		<path class="st33" d="M81.1,15.5h1.8v-4.3c0-1.5-0.8-2.7-2.4-2.7c-0.7,0-1.6,0.3-1.9,1V8.7h-1.7v6.8h1.8v-3.9
			c0-0.8,0.4-1.4,1.3-1.4s1.2,0.6,1.2,1.3L81.1,15.5L81.1,15.5z"/>
	</g>
	<g>
		<defs>
			<rect id="SVGID_61_" width="200" height="36"/>
		</defs>
		<clipPath id="SVGID_62_">
			<use xlink:href="#SVGID_61_"  style="overflow:visible;"/>
		</clipPath>
		<rect x="91.8" y="5.5" class="st34" width="1.8" height="9.9"/>
	</g>
	<g>
		<defs>
			<rect id="SVGID_63_" width="200" height="36"/>
		</defs>
		<clipPath id="SVGID_64_">
			<use xlink:href="#SVGID_63_"  style="overflow:visible;"/>
		</clipPath>
		<polygon class="st35" points="120,8.7 118.5,13.2 116.7,8.7 114.7,8.7 117.5,15.5 119.3,15.5 121.9,8.7 		"/>
	</g>
	<g>
		<defs>
			<rect id="SVGID_65_" width="200" height="36"/>
		</defs>
		<clipPath id="SVGID_66_">
			<use xlink:href="#SVGID_65_"  style="overflow:visible;"/>
		</clipPath>
		<path class="st36" d="M106.6,15.4v-1.5c-0.1,0-0.3,0.1-0.5,0.1c-0.5,0-0.8-0.2-0.8-0.8v-2.9h1.4V8.7h-1.4v-2h-1.6v1
			c0,0.6-0.3,1-1,1h-0.3v1.7h1.2v3.1c0,1.3,0.8,2.1,2.2,2.1C106.2,15.6,106.4,15.5,106.6,15.4"/>
	</g>
	<g>
		<defs>
			<rect id="SVGID_67_" width="200" height="36"/>
		</defs>
		<clipPath id="SVGID_68_">
			<use xlink:href="#SVGID_67_"  style="overflow:visible;"/>
		</clipPath>
		<polygon class="st37" points="173.5,13.2 171.9,8.7 169.9,8.7 172.7,15.5 174.5,15.5 177.1,8.7 175.2,8.7 		"/>
	</g>
	<g>
		<defs>
			<rect id="SVGID_69_" width="200" height="36"/>
		</defs>
		<clipPath id="SVGID_70_">
			<use xlink:href="#SVGID_69_"  style="overflow:visible;"/>
		</clipPath>
		<polygon class="st38" points="68,10.2 68,8.7 62.5,8.7 62.5,10.3 65.6,10.3 62.4,13.9 62.4,15.5 68,15.5 68,13.9 64.7,13.9 		"/>
	</g>
	<g>
		<defs>
			<rect id="SVGID_71_" width="200" height="36"/>
		</defs>
		<clipPath id="SVGID_72_">
			<use xlink:href="#SVGID_71_"  style="overflow:visible;"/>
		</clipPath>
		<path class="st39" d="M73.8,13.1c-0.3,0.6-0.7,1-1.6,1s-1.6-0.6-1.7-1.6h4.8c0,0,0-0.3,0-0.5c0-2.2-1.2-3.5-3.3-3.5
			c-1.7,0-3.3,1.4-3.3,3.6c0,2.3,1.6,3.7,3.5,3.7c1.6,0,2.7-1,3-2.2L73.8,13.1z M72.2,10c1,0,1.5,0.7,1.5,1.3h-3
			C70.7,10.7,71.2,10,72.2,10"/>
	</g>
	<g>
		<defs>
			<rect id="SVGID_73_" width="200" height="36"/>
		</defs>
		<clipPath id="SVGID_74_">
			<use xlink:href="#SVGID_73_"  style="overflow:visible;"/>
		</clipPath>
		<path class="st40" d="M153.3,8.5c-1,0-1.7,0.4-2.1,1V8.7h-1.7v9.4h1.8v-3.3c0.3,0.4,1,0.8,1.9,0.8c1.9,0,3.2-1.5,3.2-3.6
			C156.4,10.1,155.3,8.5,153.3,8.5 M154.6,12.1c0,1.2-0.8,1.9-1.6,1.9c-0.9,0-1.6-0.7-1.6-1.9s0.8-1.9,1.6-1.9
			C153.8,10.2,154.6,10.9,154.6,12.1L154.6,12.1z"/>
	</g>
	<g>
		<defs>
			<rect id="SVGID_75_" width="200" height="36"/>
		</defs>
		<clipPath id="SVGID_76_">
			<use xlink:href="#SVGID_75_"  style="overflow:visible;"/>
		</clipPath>
		<path class="st41" d="M127.3,13.1c-0.3,0.6-0.7,1-1.6,1s-1.6-0.6-1.7-1.6h4.8c0,0,0-0.3,0-0.5c0-2.2-1.2-3.5-3.3-3.5
			c-1.7,0-3.3,1.4-3.3,3.6c0,2.3,1.6,3.7,3.5,3.7c1.6,0,2.7-1,3-2.2L127.3,13.1z M125.6,10c1,0,1.5,0.7,1.5,1.3h-3
			C124.1,10.7,124.6,10,125.6,10"/>
	</g>
	<g>
		<defs>
			<rect id="SVGID_77_" width="200" height="36"/>
		</defs>
		<clipPath id="SVGID_78_">
			<use xlink:href="#SVGID_77_"  style="overflow:visible;"/>
		</clipPath>
		<path class="st42" d="M166.1,8.5c-2,0-3.5,1.5-3.5,3.6s1.6,3.6,3.5,3.6c2,0,3.5-1.5,3.5-3.6C169.6,10,168.1,8.5,166.1,8.5
			 M166.1,14c-0.9,0-1.7-0.7-1.7-1.9c0-1.3,0.8-1.9,1.7-1.9c0.9,0,1.7,0.6,1.7,1.9C167.8,13.3,167,14,166.1,14"/>
	</g>
	<g>
		<defs>
			<rect id="SVGID_79_" width="200" height="36"/>
		</defs>
		<clipPath id="SVGID_80_">
			<use xlink:href="#SVGID_79_"  style="overflow:visible;"/>
		</clipPath>
		<path class="st43" d="M159.5,9.7v-1h-1.7v6.8h1.8v-3.1c0-1.5,0.8-1.9,1.7-1.9c0.2,0,0.3,0,0.5,0.1V8.7c-0.2,0-0.3,0-0.4,0
			C160.9,8.6,160,8.8,159.5,9.7"/>
	</g>
	<g>
		<defs>
			<rect id="SVGID_81_" width="200" height="36"/>
		</defs>
		<clipPath id="SVGID_82_">
			<use xlink:href="#SVGID_81_"  style="overflow:visible;"/>
		</clipPath>
		<path class="st44" d="M144.7,12.1c0-2.1-1.6-3.6-3.5-3.6c-2,0-3.5,1.5-3.5,3.6s1.6,3.6,3.5,3.6C143.2,15.7,144.7,14.2,144.7,12.1
			 M141.2,14c-0.9,0-1.7-0.7-1.7-1.9c0-1.3,0.8-1.9,1.7-1.9c0.9,0,1.7,0.6,1.7,1.9C142.8,13.3,142.1,14,141.2,14"/>
	</g>
	<g>
		<defs>
			<rect id="SVGID_83_" width="200" height="36"/>
		</defs>
		<clipPath id="SVGID_84_">
			<use xlink:href="#SVGID_83_"  style="overflow:visible;"/>
		</clipPath>
		<path class="st45" d="M136.4,15.5v-4.3c0-1.5-0.8-2.7-2.5-2.7c-0.6,0-1.4,0.3-1.8,0.8V5.5h-1.8v9.9h1.8v-4c0-0.8,0.5-1.3,1.3-1.3
			c0.9,0,1.2,0.6,1.2,1.3v3.9h1.8V15.5z"/>
	</g>
</g>
</svg>
